<?xml version="1.0" encoding="UTF-8" standalone="no"?>
<svg width="44px" height="28px" viewBox="0 0 44 28" version="1.1" xmlns="http://www.w3.org/2000/svg" xmlns:xlink="http://www.w3.org/1999/xlink">
    <!-- Generator: Sketch 42 (36781) - http://www.bohemiancoding.com/sketch -->
    <title>id</title>
    <desc>Created with Sketch.</desc>
    <defs></defs>
    <g id="Page-1" stroke="none" stroke-width="1" fill="none" fill-rule="evenodd">
        <g id="id" fill-rule="nonzero" fill="#000000">
            <path d="M28.0382362,13.2391665 C26.8249463,12.5784443 26,11.3225433 26,9.86770099 C26,7.71633397 27.8039431,6 30,6 C32.1960569,6 34,7.71633397 34,9.86770099 C34,11.2759287 33.227071,12.4977593 32.0771786,13.1738358 C35.7161005,13.8633406 38.581803,16.5337786 39.2718362,19.9213906 C39.373661,19.7062316 39.4307706,19.4648181 39.4307706,19.2097746 L39.4307706,6.63610444 C39.4307706,5.73249964 38.7147141,5 37.8314135,5 L22.5993571,5 C21.7168514,5 21,5.73250891 21,6.63610444 L21,19.2097746 C21,19.4649944 21.0571241,19.7065642 21.1590061,19.9218343 C21.829174,16.6338233 24.5505528,14.0198788 28.0382362,13.2391665 Z M38.2335585,20.793655 C37.8420492,17.0808019 34.4092038,14.1600001 30.2153853,14.1600001 C26.0228505,14.1600001 22.5890156,17.0825316 22.1972508,20.7937365 C22.3257297,20.8277708 22.4604762,20.8458791 22.5993571,20.8458791 L37.8314135,20.8458791 C37.9702794,20.8458791 38.1050435,20.8277419 38.2335585,20.793655 Z M41.9,4.61111111 L41.9,23.2111111 C41.9,23.9444444 41.6333333,24.5777778 41.1,25.1111111 C40.5666667,25.6444444 39.9333333,25.9111111 39.2,25.9111111 L4.7,25.9111111 C3.96666667,25.9111111 3.33333333,25.6444444 2.8,25.1111111 C2.26666667,24.5777778 2,23.9444444 2,23.2111111 L2,4.61111111 C2,3.87777778 2.26666667,3.24444444 2.8,2.71111111 C3.33333333,2.17777778 3.96666667,1.94444444 4.7,2.01111111 L39.2,2.01111111 C39.9333333,2.01111111 40.5666667,2.24444444 41.1,2.71111111 C41.6333333,3.17777778 41.9,3.81111111 41.9,4.61111111 Z M15.6245893,15 L7.58000004,15 C7.25967486,15 7,15.2596749 7,15.58 C7,15.9003252 7.25967486,16.1600001 7.58000004,16.1600001 L15.6245893,16.1600001 C15.9449145,16.1600001 16.2045893,15.9003252 16.2045893,15.58 C16.2045893,15.2596749 15.9449145,15 15.6245893,15 Z M15.6245893,12 L7.58000004,12 C7.25967486,12 7,12.2596749 7,12.58 C7,12.9003252 7.25967486,13.1600001 7.58000004,13.1600001 L15.6245893,13.1600001 C15.9449145,13.1600001 16.2045893,12.9003252 16.2045893,12.58 C16.2045893,12.2596749 15.9449145,12 15.6245893,12 Z M30,12.4031776 C31.5208326,12.4031776 32.7300237,11.2527113 32.7300237,9.86770099 C32.7300237,8.48269069 31.5208326,7.33222441 30,7.33222441 C28.4791674,7.33222441 27.2699763,8.48269069 27.2699763,9.86770099 C27.2699763,11.2527113 28.4791674,12.4031776 30,12.4031776 Z M15.6245893,9 L7.58000004,9 C7.25967486,9 7,9.25967486 7,9.58000004 C7,9.90032522 7.25967486,10.1600001 7.58000004,10.1600001 L15.6245893,10.1600001 C15.9449145,10.1600001 16.2045893,9.90032522 16.2045893,9.58000004 C16.2045893,9.25967486 15.9449145,9 15.6245893,9 Z" id="Combined-Shape"></path>
        </g>
    </g>
</svg>